<?xml version="1.0" standalone="no"?>
<!DOCTYPE svg PUBLIC "-//W3C//DTD SVG 20010904//EN"
 "http://www.w3.org/TR/2001/REC-SVG-20010904/DTD/svg10.dtd">
<svg version="1.0" xmlns="http://www.w3.org/2000/svg"
 width="900.000000pt" height="700.000000pt" viewBox="0 0 900.000000 700.000000"
 preserveAspectRatio="xMidYMid meet">

<g transform="translate(0.000000,700.000000) scale(0.100000,-0.100000)"
fill="#000000" stroke="none">
<path d="M2017 6533 c-9 -8 -9 -719 0 -1396 l6 -527 77 0 77 0 6 212 c4 116 7
489 7 828 0 340 3 638 6 664 l7 47 2373 -3 c1305 -2 2375 -6 2378 -9 3 -3 8
-305 11 -670 3 -365 8 -755 11 -866 l6 -203 79 0 79 0 0 388 c0 213 3 647 7
965 l6 577 -2565 0 c-1410 0 -2568 -3 -2571 -7z"/>
<path d="M2024 4228 c25 -330 70 -530 193 -853 93 -244 240 -513 384 -705 131
-174 152 -195 174 -183 17 10 16 12 -9 28 -15 10 -34 31 -42 46 -18 37 -18
122 1 160 15 29 15 31 -37 107 -100 144 -208 346 -281 522 -42 102 -140 391
-161 475 -18 72 -54 345 -58 433 l-2 62 -84 0 -84 0 6 -92z"/>
<path d="M6980 4238 c0 -242 -56 -488 -194 -850 -36 -96 -157 -334 -223 -441
l-56 -90 25 -21 c46 -38 60 -93 38 -150 -14 -39 -5 -32 40 29 169 228 340 586
439 915 63 214 79 304 86 508 l6 182 -80 0 -81 0 0 -82z"/>
<path d="M2821 2668 c-11 -18 -24 -38 -30 -45 -21 -24 75 -115 124 -118 11 0
26 8 34 19 15 20 15 21 -33 51 -12 8 -14 18 -7 47 9 40 -3 59 -46 72 -18 6
-26 1 -42 -26z"/>
<path d="M6484 2568 l-19 -23 23 19 c12 11 22 21 22 23 0 8 -8 2 -26 -19z"/>
</g>
</svg>
